<?xml version="1.0"?><svg width="433.3333333333333" height="433.3333333333333" xmlns="http://www.w3.org/2000/svg" xmlns:xlink="http://www.w3.org/1999/xlink">
 <title>donate button</title>
 <defs>
  <linearGradient id="linearGradient1702">
   <stop stop-color="#ffffff" stop-opacity="0.690722" offset="0" id="stop1703"/>
   <stop stop-color="#ffffff" stop-opacity="0" offset="1" id="stop1704"/>
  </linearGradient>
  <linearGradient id="linearGradient1697">
   <stop stop-color="#db210e" offset="0" id="stop1698"/>
   <stop stop-color="#761107" offset="1" id="stop1699"/>
  </linearGradient>
  <linearGradient y2="0.000028" y1="0.962463" xlink:href="#linearGradient1697" x2="0.434766" x1="0.434766" id="linearGradient1076"/>
  <linearGradient y2="0.933531" y1="0.077503" xlink:href="#linearGradient1697" x2="0.491787" x1="0.491787" id="linearGradient1077"/>
  <linearGradient y2="1.321187" y1="-0.037698" xlink:href="#linearGradient1702" x2="0.482606" x1="0.478623" id="linearGradient1078"/>
 </defs>
 <g>
  <title>Layer 1</title>
  <g id="layer1">
   <path fill="url(#linearGradient1076)" fill-rule="nonzero" stroke="url(#linearGradient1077)" stroke-width="1.364453" stroke-linecap="round" stroke-linejoin="round" stroke-miterlimit="4" stroke-dashoffset="0" id="path1070" d="m405.369537,216.394852a190.403671,190.403671 0 1 1 -380.807377,0a190.403671,190.403671 0 1 1 380.807377,0z"/>
   <path opacity="0.9" fill="url(#linearGradient1078)" fill-rule="evenodd" stroke-width="0.25000000pt" id="path1713" d="m353.277893,166.236755c44.367188,-0.966797 -12.400146,-123.152874 -135.681015,-123.802784c-134.561531,-0.687122 -162.095947,110.961353 -140.719437,112.997211c0,0 36.864159,5.062622 71.939575,14.856064c56.472656,15.930817 125.549133,-13.069229 152.768738,-17.2836c30.342468,-4.697861 47.373413,15.392426 51.692139,13.233109z"/>
  </g>
  <text font-style="normal" font-weight="bold" transform="matrix(2.625, 0, 0, 2.89655, -130.273, -304.715)" xml:space="preserve" text-anchor="middle" font-family="Verdana" font-size="24" id="svg_1" y="172.96428" x="130.904767" stroke-width="0" stroke="#000000" fill="#7f7f7f">DONATE</text>
  <text font-weight="bold" transform="matrix(1.79775, 0, 0, 1.88889, -196.78, -216.594)" xml:space="preserve" text-anchor="middle" font-family="Verdana" font-size="32" id="svg_2" y="253.254876" x="231.260454" stroke-width="0" stroke="#000000" fill="#7f7f7f">NOW!</text>
  <text id="svg_3" font-style="normal" font-weight="bold" transform="matrix(2.625, 0, 0, 2.89655, -130.273, -304.715)" xml:space="preserve" text-anchor="middle" font-family="Verdana" font-size="24" y="171.808758" x="129.881943" stroke-width="0" stroke="#000000" fill="#ffffff">DONATE</text>
  <text id="svg_4" font-weight="bold" transform="matrix(1.79775, 0, 0, 1.88889, -196.78, -216.594)" xml:space="preserve" text-anchor="middle" font-family="Verdana" font-size="32" y="250.594759" x="229.424735" stroke-width="0" stroke="#000000" fill="#ffffff">NOW!</text>
  <text font-style="italic" xml:space="preserve" text-anchor="middle" font-family="Verdana" font-size="29" id="svg_5" y="313.666656" x="216.666687" stroke-width="0" stroke="#000000" fill="#ffffff">CLICK HERE</text>
 </g>
</svg>